<?xml version="1.0" encoding="UTF-8"?>
<svg fill="none" viewBox="0 0 745 521" xmlns="http://www.w3.org/2000/svg">
<g clip-path="url(#h)">
<path d="m736.57 306.8c0 72.841-43.353 98.274-96.833 98.274-53.479 0-96.832-25.433-96.832-98.274s96.832-165.51 96.832-165.51 96.833 92.665 96.833 165.51z" fill="#E6E6E6"/>
<path d="m636.21 393.93 0.991-60.962 41.273-75.417-41.117 65.854 0.446-27.41 28.445-54.565-28.327 47.311 0.801-49.3 30.46-43.439-30.333 35.687 0.501-90.397-3.149 119.67 0.259-4.937-30.969-47.347 30.472 56.824-2.886 55.059-0.085-1.462-35.701-49.825 35.593 54.988-0.361 6.886-0.065 0.103 0.03 0.566-7.321 139.69h9.781l1.173-72.152 35.506-54.853-35.417 49.429z" fill="#3F3D56"/>
<path d="m535.16 240.5c0 94.208-56.07 127.1-125.24 127.1-69.166 0-125.24-32.893-125.24-127.1s125.24-214.06 125.24-214.06 125.24 119.85 125.24 214.06z" fill="#E6E6E6"/>
<path d="m405.36 353.19 1.282-78.844 53.379-97.541-53.177 85.173 0.576-35.451 36.789-70.57-36.637 61.188v1e-3l1.037-63.761 39.395-56.182-39.232 46.156 0.648-116.91-4.071 154.77 0.335-6.385-40.053-61.235 39.41 73.491-3.732 71.21-0.111-1.891-46.173-64.44 46.033 71.118-0.467 8.906-0.083 0.134 0.038 0.73-9.468 180.67h12.65l1.518-93.317 45.92-70.944-45.806 63.929z" fill="#3F3D56"/>
<path d="m728.83 484.89c0 7.09-20.63 13.711-56.272 19.287-64.585 10.113-178.46 16.825-308.15 16.825-201.26 0-364.41-16.166-364.41-36.112 0-2.757 3.1317-5.457 9.065-8.038 6.6917-2.924 16.957-5.709 30.313-8.311 27.532-5.365 68.208-9.952 117.82-13.36 57.592-3.949 127.24-6.299 202.37-6.39 1.608-7e-3 3.221-9e-3 4.838-7e-3 9.051 0 18.022 0.033 26.914 0.098 4.178 0.029 8.337 0.066 12.478 0.113 44.25 0.47 86.128 1.725 124.18 3.619 1.699 0.084 3.392 0.175 5.077 0.259 0.576 0.028 1.151 0.063 1.727 0.091 0.155 7e-3 0.309 0.014 0.464 0.028 7.478 0.393 14.792 0.812 21.942 1.256 2.345 0.14 4.67 0.287 6.973 0.442 22.378 1.451 43.036 3.142 61.615 5.042 3.174 0.323 6.287 0.653 9.339 0.989 23.508 2.574 43.303 5.499 58.554 8.676 22.539 4.692 35.15 9.945 35.15 15.493z" fill="#3F3D56"/>
<path d="m528.71 501.01c43.853 0 79.403-8.228 79.403-18.377s-35.55-18.377-79.403-18.377c-43.852 0-79.402 8.228-79.402 18.377s35.55 18.377 79.402 18.377z" fill="#000" opacity=".1"/>
<path d="m728.83 484.89c0 7.09-20.63 13.711-56.272 19.287-26.949-2.939-45.606-9.286-45.606-16.636 0-9.153 28.902-16.742 66.727-18.144 22.54 4.692 35.151 9.945 35.151 15.493z" fill="#000" opacity=".1"/>
<path d="m395.08 476.51c0 12.109-86.42 21.923-193.02 21.923-105.6 0-191.39-9.627-192.99-21.582 20.496-8.937 74.458-16.61 148.13-21.671 14.396-0.387 29.418-0.594 44.86-0.594 106.6 0 193.02 9.814 193.02 21.924z" fill="#000" opacity=".1"/>
<path d="M359.572 0H39.3786V479.085H359.572V0Z" fill="#3F3D56"/>
<path d="m359.57 166.36h-300.83v147.01h300.83v-147.01z" fill="#2F2E41"/>
<path d="m477.71 169.58h-297.6v139.92h297.6v-139.92z" fill="#3F3D56"/>
<path d="m264.84 190.22h-66.491v23.858h66.491v-23.858z" fill="url(#g)"/>
<path d="m459.47 232.13h-244.66v6.448h244.66v-6.448z" fill="url(#f)"/>
<path d="m459.47 248.89h-244.66v6.448h244.66v-6.448z" fill="url(#e)"/>
<path d="m459.47 265.66h-244.66v6.448h244.66v-6.448z" fill="url(#d)"/>
<path d="m459.47 282.42h-244.66v6.448h244.66v-6.448z" fill="url(#c)"/>
<path d="m127.17 54.163h-66.492v23.858h66.492v-23.858z" fill="#E6E6E6"/>
<path d="m321.81 96.075h-244.66v6.4482h244.66v-6.4482z" fill="#E6E6E6"/>
<path d="m321.81 112.84h-244.66v6.448h244.66v-6.448z" fill="#E6E6E6"/>
<path d="m321.81 129.6h-244.66v6.448h244.66v-6.448z" fill="#E6E6E6"/>
<path d="m321.81 146.37h-244.66v6.448h244.66v-6.448z" fill="#E6E6E6"/>
<path d="m129.76 328.2h-66.492v23.858h66.492v-23.858z" fill="#E6E6E6"/>
<path d="m324.39 370.11h-244.66v6.448h244.66v-6.448z" fill="#E6E6E6"/>
<path d="m324.39 386.88h-244.66v6.448h244.66v-6.448z" fill="#E6E6E6"/>
<path d="m324.39 403.64h-244.66v6.448h244.66v-6.448z" fill="#E6E6E6"/>
<path d="m324.39 420.41h-244.66v6.448h244.66v-6.448z" fill="#E6E6E6"/>
<path d="m507.71 98.51s13.274 16.987 11.615 29.002 27.376-16.572 27.376-16.572-9.955-20.716-4.563-30.659c5.393-9.9435-34.428 18.23-34.428 18.23z" fill="#FFB9B9"/>
<path d="m554.17 442.39s17.421 19.058 14.517 23.201c-2.903 4.144-53.923 19.887-59.73 19.059-5.807-0.829-8.711-4.972-6.637-6.215s15.348-8.286 15.348-8.286l11.199-12.844s8.296-4.557 8.296-7.043 17.007-7.872 17.007-7.872z" fill="#2F2E41"/>
<path d="m524.72 463.52s-6.637 10.772-7.881 11.186c-1.244 0.415 6.222 15.33 6.222 15.33l17.421-5.386 9.541-7.872-2.074-10.772-23.229-2.486z" fill="#FFB9B9"/>
<path d="m506.88 258.02-8.296 36.874s-28.621 64.218-8.711 75.405l43.554 83.276 23.228-10.357-38.99-85.349 17.836-98.191-28.621-1.658z" fill="#D0CDE1"/>
<path d="m506.88 258.02-8.296 36.874s-28.621 64.218-8.711 75.405l43.554 83.276 23.228-10.357-38.99-85.349 17.836-98.191-28.621-1.658z" fill="#000" opacity=".1"/>
<path d="m509.78 263.82h-4.208c-0.328 12.742 0.386 25.49 2.134 38.116 2.904 21.13 10.37 69.605 10.37 69.605s-0.829 9.114 1.66 12.015c2.488 2.9 2.903-0.829 3.318 5.8s4.355 52.718 4.355 52.718 2.696 9.429-0.207 11.5c-2.904 2.072-8.711 13.258-4.563 14.916 4.148 1.657 32.769 3.728 34.013 2.485 1.245-1.243 0-79.133 0-79.133s-0.829-15.744-1.659-16.573c-0.829-0.828-4.563-12.015-3.318-14.5 1.244-2.486 0.415-9.944 0.415-11.187s-3.734 0-0.415-5.386c3.318-5.386 3.733-48.474 3.733-48.474s17.836-27.345 12.444-34.388l-58.072 2.486z" fill="#D0CDE1"/>
<path d="m519.33 104.72c15.119 0 27.376-12.243 27.376-27.345 0-15.102-12.257-27.344-27.376-27.344-15.12 0-27.377 12.243-27.377 27.344 0 15.102 12.257 27.345 27.377 27.345z" fill="#FFB9B9"/>
<path d="m546.7 106.38s-16.592 4.143-23.228 14.087l-5.807 1.243v5.8s-10.785 34.388-8.296 49.303c2.488 14.915 0 43.917-4.148 51.789s-5.393 9.529-3.319 12.844c2.074 3.314 4.978 14.501 2.904 19.472-2.074 4.972 0 9.944 19.08 11.187 19.081 1.243 46.043 1.243 46.043-5.386s-1.659-25.273 0-30.245 2.489-8.286 1.659-12.844c-0.83-4.557 1.659-55.517 1.659-55.517s0.415-50.961-26.547-61.733z" fill="#2F2E41"/>
<path d="m507.71 234.4-22.813 33.973s-24.059 21.959-15.348 31.902c8.711 9.944 31.525-29.002 31.525-29.002l24.887-28.173-18.251-8.7z" fill="#FFB9B9"/>
<path d="m522.23 476.78s-0.829-5.386-3.733-5.386c-2.903 0-22.399 13.258-22.399 13.258s-25.717 2.9-15.762 8.286 70.93 6.215 71.345 4.143c0.415-2.071 1.244-22.5-1.659-22.436-2.904 0.063-26.133 4.621-26.133 4.621l-1.659-2.486z" fill="#2F2E41"/>
<path d="m521.27 63.253c-0.972 0.4789-2.045 0.7208-3.129 0.7062-1.119 0.0635-2.454-0.0056-3.049-0.9542-0.282-0.6242-0.412-1.3058-0.381-1.9897-0.117-0.8782-0.412-1.7234-0.866-2.4847-0.453-0.7613-1.057-1.4229-1.774-1.9447-0.716-0.5218-1.532-0.8931-2.396-1.0914-0.865-0.1982-1.76-0.2194-2.633-0.0622 0.118 1.3694 0.536 2.6963 1.222 3.8878-1.213 0.4109-2.504 0.5369-3.773 0.3682-1.269-0.1688-2.483-0.6277-3.545-1.3411l-0.422 5.5809c-1.488 0.7103-3.394 0.8584-4.692-0.1582-1.297-1.0166-1.401-3.4025 0.067-4.1537-1.813-0.3776-4.031-1.1889-4.164-3.034-0.122-1.6835 1.668-2.9157 1.997-4.5712 0.269-1.3502-0.472-2.8178 0.052-4.0909 0.689-1.6724 3.191-2.1018 3.692-3.8394 0.256-0.885-0.112-1.8315-0.024-2.7484 0.23-2.4006 3.251-3.3973 5.662-3.2608 2.41 0.1364 5.041 0.7758 7.089-0.5016 0.993-0.6194 1.686-1.6107 2.559-2.3903 1.206-1.0333 2.706-1.6629 4.289-1.8004s3.169 0.2241 4.536 1.0339c0.969 0.6021 1.815 1.4366 2.896 1.8026 2.213 0.749 4.521-0.6682 6.834-0.9949 0.846-0.1447 1.714-0.096 2.539 0.1426 0.824 0.2385 1.584 0.6606 2.221 1.2346 0.619 0.5944 1.024 1.3763 1.152 2.2243 0.129 0.848-0.027 1.7145-0.443 2.4649 1.357-0.2289 2.796-0.4504 4.075 0.0574 1.279 0.5077 2.256 2.0374 1.664 3.2786-0.22 0.3254-0.393 0.6798-0.516 1.0528-0.12 0.7222 0.576 1.3395 1.279 1.5466s1.466 0.1683 2.154 0.4199c2.843 1.0394 2.161 5.5794 4.399 7.6163 0.768 0.5576 1.579 1.0532 2.426 1.4819 1.111 0.7695 1.924 1.8967 2.303 3.1932s0.301 2.6836-0.222 3.9294c-0.448 0.9921-1.2 1.939-1.109 3.0238 0.127 1.5216 1.759 2.3551 2.904 3.3661 1.045 0.9625 1.76 2.2295 2.042 3.6209 0.283 1.3914 0.119 2.8363-0.468 4.1293-1.053 2.1939-3.334 3.857-3.565 6.279-0.101 1.0527 0.216 2.1038 0.198 3.1612-0.067 0.9775-0.354 1.9273-0.839 2.7787s-1.157 1.5825-1.964 2.1388c-1.625 1.0996-3.455 1.8602-5.381 2.2363-0.904 0.2162-1.983 0.5546-2.202 1.4572-0.259 1.0702 0.936 2.044 0.812 3.1381-0.077 0.4754-0.34 0.9009-0.731 1.1829-1.618 1.264-4.179 0.18-5.169-1.6179-0.989-1.7981-0.863-3.9771-0.709-6.0231l0.558-7.4402c0.173-2.3149 0.157-5.064-1.733-6.416-2.088-1.4947-5.131-0.2846-7.493-1.2946-2.461-1.0524-3.344-4.1324-3.245-6.8047 0.1-2.6724 0.866-5.3489 0.426-7.987-0.547-3.2691-3.458-5.4663-6.398-3.3478 2.584-0.3516 3.03 2.6099 0.988 3.8087z" fill="#2F2E41"/>
<path d="m544.21 126.27s-16.591 6.629-16.591 20.716c0 14.086 0.829 32.73-2.074 38.945-2.904 6.215-5.393 8.286-3.733 13.258 1.659 4.972 4.562 4.143 0 7.872-4.563 3.729-4.148-2.486-4.563 3.729-0.415 6.214 4.148 7.043 0 9.943s-14.933 14.501-10.37 18.23 16.592 15.744 20.74 11.186c4.148-4.557 6.222-16.158 12.029-15.329 5.807 0.828 6.636 1.243 5.807-2.9-0.83-4.143-4.563-4.143 0.415-5.386 4.977-1.243 7.051 1.657 5.392-2.486s-2.904-5.801 0.415-10.358c3.318-4.557 4.977-5.8 4.563-10.358-0.415-4.557 9.125-45.574 9.125-45.574s2.904-34.802-21.155-31.488z" fill="#000" opacity=".1"/>
<path d="m539.65 125.44s-16.592 6.629-16.592 20.716 0.829 32.731-2.074 38.945c-2.904 6.215-5.392 8.287-3.733 13.258 1.659 4.972 4.562 4.143 0 7.872-4.563 3.729-4.148-2.486-4.563 3.729s4.148 7.043 0 9.944c-4.148 2.9-14.933 14.5-10.37 18.229s16.592 15.744 20.74 11.187c4.148-4.558 6.222-16.158 12.029-15.33 5.807 0.829 6.637 1.243 5.807-2.9s-4.563-4.143 0.415-5.386c4.977-1.243 7.051 1.657 5.392-2.486s-2.903-5.8 0.415-10.358c3.318-4.557 4.978-5.8 4.563-10.358-0.415-4.557 9.125-45.574 9.125-45.574s2.904-34.802-21.154-31.488z" fill="#000" opacity=".1"/>
<path d="m541.72 124.2s-16.592 6.629-16.592 20.715c0 14.087 0.829 32.731-2.074 38.945-2.904 6.215-5.393 8.287-3.733 13.258 1.659 4.972 4.562 4.143 0 7.872-4.563 3.729-4.148-2.486-4.563 3.729s4.148 7.043 0 9.944c-4.148 2.9-14.933 14.501-10.37 18.229 4.563 3.729 16.592 15.744 20.74 11.187 4.148-4.558 6.222-16.158 12.029-15.33 5.807 0.829 6.637 1.243 5.807-2.9s-4.563-4.143 0.415-5.386c4.977-1.243 7.051 1.657 5.392-2.486s-2.903-5.8 0.415-10.358c3.318-4.557 4.978-5.8 4.563-10.357-0.415-4.558 9.125-45.575 9.125-45.575s2.904-34.802-21.154-31.487z" fill="#2F2E41"/>
<path d="m628.44 410.44c0 36.249 22.767 65.581 50.903 65.581l-50.903-65.581z" fill="#2F2E41"/>
<path d="m679.34 476.02c0-36.656 25.407-66.318 56.804-66.318l-56.804 66.318z" fill="url(#b)"/>
<path d="m646.88 413.72c0 34.432 14.518 62.295 32.46 62.295l-32.46-62.295z" fill="url(#a)"/>
<path d="m679.34 476.02c0-46.838 29.366-84.739 65.657-84.739l-65.657 84.739z" fill="#2F2E41"/>
<path d="m668.63 476.48s7.219-0.222 9.395-1.77c2.175-1.547 11.104-3.395 11.644-0.913 0.539 2.482 10.848 12.343 2.698 12.408-8.15 0.066-18.937-1.268-21.108-2.589-2.172-1.321-2.629-7.136-2.629-7.136z" fill="#A8A8A8"/>
<path d="m692.52 485.34c-8.15 0.065-18.937-1.268-21.109-2.59-1.653-1.006-2.312-4.616-2.533-6.281-0.152 6e-3 -0.241 9e-3 -0.241 9e-3s0.457 5.815 2.629 7.136c2.171 1.321 12.958 2.655 21.108 2.589 2.353-0.018 3.165-0.855 3.121-2.093-0.327 0.748-1.224 1.216-2.975 1.23z" fill="#000" opacity=".2"/>
</g>
<defs>
<linearGradient id="g" x1="198.35" x2="264.84" y1="201.98" y2="201.98" gradientUnits="userSpaceOnUse">
<stop stop-color="#FF416C" offset="0"/>
<stop stop-color="#FF4B2B" offset="1"/>
</linearGradient>
<linearGradient id="f" x1="214.81" x2="459.47" y1="235.31" y2="235.31" gradientUnits="userSpaceOnUse">
<stop stop-color="#FF416C" offset="0"/>
<stop stop-color="#FF4B2B" offset="1"/>
</linearGradient>
<linearGradient id="e" x1="214.81" x2="459.47" y1="252.07" y2="252.07" gradientUnits="userSpaceOnUse">
<stop stop-color="#FF416C" offset="0"/>
<stop stop-color="#FF4B2B" offset="1"/>
</linearGradient>
<linearGradient id="d" x1="214.81" x2="459.47" y1="268.84" y2="268.84" gradientUnits="userSpaceOnUse">
<stop stop-color="#FF416C" offset="0"/>
<stop stop-color="#FF4B2B" offset="1"/>
</linearGradient>
<linearGradient id="c" x1="214.81" x2="459.47" y1="285.6" y2="285.6" gradientUnits="userSpaceOnUse">
<stop stop-color="#FF416C" offset="0"/>
<stop stop-color="#FF4B2B" offset="1"/>
</linearGradient>
<linearGradient id="b" x1="679.34" x2="736.15" y1="442.42" y2="442.42" gradientUnits="userSpaceOnUse">
<stop stop-color="#FF416C" offset="0"/>
<stop stop-color="#FF4B2B" offset="1"/>
</linearGradient>
<linearGradient id="a" x1="646.88" x2="679.34" y1="444.46" y2="444.46" gradientUnits="userSpaceOnUse">
<stop stop-color="#FF416C" offset="0"/>
<stop stop-color="#FF4B2B" offset="1"/>
</linearGradient>
<clipPath id="h">
<rect width="745" height="521" fill="#fff"/>
</clipPath>
</defs>
</svg>
